<svg xmlns="http://www.w3.org/2000/svg" viewBox="0 0 565.85 141.47"><defs><style>.a,.b{fill:#fff;}.b{stroke:#fff;stroke-miterlimit:3.86;stroke-width:3px;}</style></defs><title>vocal-arts-logo-white</title><path class="a" d="M79.26,9l2,15.11.19,1.58-.19.63a1.16,1.16,0,0,1-.94.63c-.51,0-1.26-.84-2.27-2.64Q66.27,3.71,46.09,3.71,30,3.71,20.75,13.59t-9.27,27q0,19.68,10.31,32.17A32.83,32.83,0,0,0,48.3,85.22a38.11,38.11,0,0,0,18.6-5Q76,75.11,79.57,67.91c1.09-2.23,1.93-3.37,2.52-3.41s1,.36,1,1.2l-.06.7-.26,1.39-1.44,7.72-.26,1.14c-.17,1.09-1.15,2.23-3,3.41a58.52,58.52,0,0,1-32.06,9.26q-20.28,0-32.69-12T1,45.63Q1,26,13.81,13T46.06,0A50.87,50.87,0,0,1,70.5,6L73,7.31l1,.44,1.07.37a1.83,1.83,0,0,0,1-.5,4.54,4.54,0,0,1,1.89-1C78.61,6.61,79.05,7.41,79.26,9Z"/><path class="a" d="M105.27,70.71l.07,2.21c0,5,.48,8,1.45,9s4.12,1.39,9.46,1.39a66.8,66.8,0,0,0,20.47-2.81q8.67-2.79,11.07-7.4c.59-1.13,1.17-1.7,1.76-1.7s1,.42.95,1.26q-.25,4.14-4.1,9.1-5.43,6.84-17.59,6.84c-1.35,0-2.9-.07-4.67-.19l-6.81-.5q-6-.45-12.67-.44a94,94,0,0,0-13,.75c-1.47.21-2.65.34-3.53.38-1,0-1.58-.33-1.58-1.11s.57-1.14,1.72-1.48c2.91-.88,4.87-2.17,5.86-3.87s1.5-4.58,1.5-8.61l.06-2.9V14.19q0-8.4-6.81-9.78l-2.83-.57c-1-.2-1.51-.61-1.51-1.23,0-.94.71-1.42,2.14-1.42,1,0,2.28.09,4,.26q4.27.38,9.61.37,5.79,0,10.5-.31c1.59-.09,2.49-.13,2.7-.13,1,0,1.51.31,1.51.93,0,.9-.61,1.5-1.82,1.78l-2.21.51Q105.27,6,105.27,15.89Z"/><path class="a" d="M169.44,11.54V37c0,1.94.18,3.11.54,3.5s1.43.61,3.24.61h9.7a57.17,57.17,0,0,0,10.46-.76q3.39-.69,4.41-1.83c.67-.75,1.28-2.52,1.82-5.29.22-1,.75-1.55,1.61-1.51s1.23.61,1.23,1.7c0,.29,0,.75-.07,1.38-.38,4.06-.56,7.77-.56,11.12,0,2.56.12,5.09.37,7.61.09.83.13,1.44.13,1.81,0,1.05-.41,1.58-1.22,1.58a1.49,1.49,0,0,1-1.61-1.39l-.38-1.76c-.51-2.82-1.51-4.73-3-5.74s-4.06-1.51-7.67-1.51H174.53a8.82,8.82,0,0,0-4.12.64,2.71,2.71,0,0,0-1,2.52l.06,2.08V74.94q0,5.36,1.92,6.69T181.08,83q24.72,0,31.76-11.15c.47-.71.94-1.09,1.42-1.13.77,0,1.16.51,1.16,1.63q0,4.08-4.6,9.73a17.3,17.3,0,0,1-14,6.78c-1.22,0-2.86-.08-4.91-.25q-12-1.14-19.91-1.13a109.35,109.35,0,0,0-15.55.75,22.55,22.55,0,0,1-3.28.44c-1.34,0-2-.45-2-1.35,0-.7.55-1.2,1.64-1.48l2.4-.7q4.53-1.26,4.53-8.83l.06-4.1V18.85q0-9-2-12.14c-1.32-2.08-3.9-3.12-7.72-3.12-1.22,0-1.82-.39-1.82-1.17,0-1.15.94-1.73,2.83-1.73a35.47,35.47,0,0,1,4.22.32A199.54,199.54,0,0,0,177,2q7.68,0,13.6-.25l9-.44c2.47-.08,4-.17,4.53-.25A18.82,18.82,0,0,1,206.6.82c1.39,0,2.08.6,2.08,1.82a6.86,6.86,0,0,1-.19,1.44c-.12.59-.29,2.26-.5,5l-.25,3.7a26.26,26.26,0,0,1-.64,4.55,1.45,1.45,0,0,1-1.42,1c-.81,0-1.22-.59-1.22-1.89V14.8a10,10,0,0,0-.75-3.84,6.65,6.65,0,0,0-4.84-3.78q-3.65-.95-13.4-.95H175.6c-2.6,0-4.27.33-5,1S169.44,9.31,169.44,11.54Z"/><path class="a" d="M298.92,24.25q-5.37,9.38-7.13,13l-5.62,12-6.44,13.22c-.33.75-2.1,4.7-5.3,11.82-1.3,2.94-2.44,5.36-3.41,7.24-.54,1.14-.92,1.93-1.13,2.39-.83,2-1.73,3-2.68,3s-2-1-2.87-3.09c-.17-.37-.75-1.53-1.76-3.45l-1.27-2.65L237.64,26.64l-1.45,31.18Q236,61.66,236,73.19q0,11.09,7.81,12.28,3.84.61,3.84,1.86c0,.94-.61,1.42-1.82,1.42a21.78,21.78,0,0,1-2.32-.13c-4.7-.42-8.32-.63-10.88-.63a65.61,65.61,0,0,0-8.8.57,14.88,14.88,0,0,1-1.94.19c-1.26,0-1.89-.45-1.89-1.36,0-.69.51-1.15,1.51-1.35,3.07-.71,5.21-2.15,6.43-4.29s1.95-5.8,2.2-11L231,52.51q.94-19.86.95-25.1,0-11.2-3-16.6t-9.89-6.65c-1.26-.21-1.89-.72-1.89-1.55s.52-1.35,1.58-1.35q.56,0,2.07.12a39.78,39.78,0,0,0,4.28.13q5.16,0,6.55-.13A20.06,20.06,0,0,1,234,1.19c1.8,0,3.31,1.33,4.53,4l.69,1.45,26.26,56.63,3.21,6.49c.45,1.09.79,1.63,1,1.63s.57-.4.95-1.19l.75-1.71L272,67.2,301.58,3.78A11.06,11.06,0,0,1,303,1.29a2.32,2.32,0,0,1,1.67-.47c.34,0,1.26.08,2.77.25.55,0,1.24.06,2.08.06a63.18,63.18,0,0,0,6.36-.25c.75,0,1.36-.09,1.83-.13.83,0,1.26.37,1.26,1.23a1.43,1.43,0,0,1-1.26,1.48l-2.71.7a6.15,6.15,0,0,0-4.51,3.94c-.86,2.13-1.29,5.6-1.29,10.44l.38,15.2L310.77,68l.31,8q0,4.78,1.76,6.87t6.43,2.78c2.22.32,3.34.88,3.34,1.66s-.78,1.23-2.33,1.23c-.46,0-1,0-1.57-.06l-4.9-.5a51.39,51.39,0,0,0-5.28-.25c-1.3,0-3.36.09-6.16.28q-6.54.35-7.54.35-1.83,0-1.83-1.11c0-.66.53-1.13,1.58-1.41q3.71-1,5-3.28t1.26-7.94l-.25-10.28Z"/><path class="a" d="M355,0a29.59,29.59,0,0,1,11.41,2l4.34,1.83A2.93,2.93,0,0,0,371.9,4a2.38,2.38,0,0,0,1.51-.63l.88-.76a.82.82,0,0,1,.69-.25c1,0,1.58,1,1.58,3.09q0,1.06.82,6.36l1,6.49a22.64,22.64,0,0,1,.32,2.58q0,1.95-1.35,1.95c-.69,0-1.37-1-2.05-3a21.2,21.2,0,0,0-9.2-11.25,28.2,28.2,0,0,0-15.48-4.42,16.52,16.52,0,0,0-11.33,4,12.75,12.75,0,0,0-4.56,10,14.59,14.59,0,0,0,3,9.15,16.84,16.84,0,0,0,5.63,4.79,153.76,153.76,0,0,0,15,5.48q23.28,7.62,23.28,25A24.41,24.41,0,0,1,373,81.82q-8.56,7.5-22,7.5a46.62,46.62,0,0,1-10.67-1.39,27.39,27.39,0,0,1-8.53-3.21,3.9,3.9,0,0,1-1.51-1.61,29.84,29.84,0,0,1-1.14-4.38c-.08-.33-.61-2.24-1.57-5.73A33.57,33.57,0,0,1,326,64.94c0-1.26.42-1.87,1.28-1.83s1.46,1.08,2.06,3.1a24.44,24.44,0,0,0,9.54,13.14,26.4,26.4,0,0,0,15.84,5.3,21.83,21.83,0,0,0,14.66-5.11,15.73,15.73,0,0,0,6-12.42,15,15,0,0,0-5.54-11.78q-2.83-2.46-16.35-7-14-4.73-19.78-10.45T327.87,23a20.75,20.75,0,0,1,7.59-16.61Q343,0,355,0Z"/><path class="a" d="M432.69,0Q452.4,0,465,12.18t12.63,31.19q0,20.13-12.73,33T432.37,89.32Q412,89.32,399.46,77T386.89,44.63a47.14,47.14,0,0,1,3.31-17.22,41.43,41.43,0,0,1,8.92-14.26,42.1,42.1,0,0,1,15-9.59A50.37,50.37,0,0,1,432.69,0Zm-4.07,4.09q-14.62,0-23.23,9.84t-8.6,26.51q0,19.06,11,32.14t27,13.08A30.93,30.93,0,0,0,458.94,75q9.53-10.66,9.52-27,0-18.81-11.41-31.35A36.85,36.85,0,0,0,428.62,4.09Z"/><path class="a" d="M552.65,25.82V78.61a65.65,65.65,0,0,1-.31,8.66,1.6,1.6,0,0,1-1.76,1.48,2.24,2.24,0,0,1-1.46-.57l-1.38-1.64-53.1-60.72-.63-.69a1.22,1.22,0,0,0-.88-.38c-.8,0-1.2.95-1.2,2.84V70.34L491.87,73l.19,4.48q.44,4.16,2.14,5.73c1.13,1,3.36,1.83,6.67,2.34,1.39.16,2.09.7,2.09,1.6s-.45,1.23-1.33,1.23a14.19,14.19,0,0,1-1.89-.13c-.46-.08-2.28-.21-5.48-.37l-6.42-.32-3,.11a36.43,36.43,0,0,0-4.66.29,20,20,0,0,1-2.33.23c-1.09,0-1.68-.39-1.76-1.17,0-.61.55-1.13,1.76-1.54q5.3-1.83,7.15-4.88t1.86-9.87V27.86q0-10.9-3.46-17.18t-10-7.15c-1.13-.17-1.7-.64-1.7-1.42S472.11.94,473,.94c.2,0,.54,0,1,.07l2.58.06,4.23.12,1-.06c1,0,1.78-.06,2.32-.06a4.31,4.31,0,0,1,3.15,1.83l57.95,65.63c.93,1,1.51,1.55,1.77,1.51q.63-.06.69-1.2V37.67l.06-8.51-.75-14.48c-.42-3.58-1.46-6.1-3.12-7.6s-4.65-2.59-9-3.3c-1.22-.21-1.82-.72-1.82-1.54s.6-1.17,1.82-1.17c.55,0,1.43.06,2.65.17a115.16,115.16,0,0,0,11.65.46,41.09,41.09,0,0,0,6.24-.38,18.34,18.34,0,0,1,3.08-.38c1.09,0,1.68.44,1.76,1.33,0,.54-.37.94-1.25,1.19q-3.84.94-5.07,3.15t-1.23,8.25v6.81Z"/><line class="b" y1="139.97" x2="553.05" y2="139.97"/><line class="b" x1="0.14" y1="97.76" x2="553.19" y2="97.76"/><path class="a" d="M561.35,7.12a4.45,4.45,0,1,1-4.52,4.43A4.44,4.44,0,0,1,561.35,7.12Zm0,.72a3.62,3.62,0,0,0-3.66,3.71,3.65,3.65,0,1,0,7.29,0A3.6,3.6,0,0,0,561.35,7.84Zm-1,6.29h-.79V9h2c1.22,0,1.82.46,1.82,1.46a1.34,1.34,0,0,1-1.34,1.42l1.46,2.25h-.86l-1.37-2.23h-.89Zm0-2.88h.94c1,0,1.27-.27,1.27-.83s-.24-.77-1.14-.77H560.4Z"/><path class="a" d="M185.26,107.59h4.35l4.1,17h.06l4.29-17h4.35l-6.11,23.1h-4.93Z"/><path class="a" d="M213.39,131c-6.3,0-9.7-4.32-9.7-11.87s3.4-11.87,9.7-11.87,9.69,4.32,9.69,11.87S219.69,131,213.39,131Zm0-20c-3.62,0-5.28,2.75-5.28,8.16s1.63,8.16,5.28,8.16,5.28-2.75,5.28-8.16S217,111,213.39,111Z"/><path class="a" d="M238.38,114.31a4.32,4.32,0,0,0-4.19-3.33c-2.94,0-4.74,2.75-4.74,8.16s1.54,8.16,4.87,8.16c2,0,3.2-.7,4.51-3.42l4.09,1.09c-1.37,4-4.38,6-8.6,6-5.89,0-9.28-4.32-9.28-11.87s3.39-11.87,9.28-11.87c4.41,0,7,2,8.06,6.08Z"/><path class="a" d="M250.7,107.56h5.5l6.56,23.13h-4.38l-1.28-5h-7.29l-1.38,5h-4.38Zm.06,14.49h5.38l-2.59-10h-.07Z"/><path class="a" d="M265.68,130.69v-23.1h4.41V127h10.05v3.71Z"/><path class="a" d="M297.8,107.56h5.51l6.56,23.13h-4.39l-1.28-5h-7.29l-1.38,5h-4.38Zm.07,14.49h5.37l-2.59-10h-.06Z"/><path class="a" d="M312.78,130.69v-23.1H322c5.24,0,7.36,3,7.39,6.85a5.72,5.72,0,0,1-4.23,6l5.09,10.3h-4.89l-4.36-9.4h-3.8v9.4Zm4.42-13h3.26c3.46,0,4.51-1.09,4.51-3.26s-1.31-3.27-3.74-3.27h-4Z"/><path class="a" d="M348.2,107.56v3.71h-6v19.42h-4.42V111.27h-6.05v-3.71Z"/><path class="a" d="M362.25,113.73a4.24,4.24,0,0,0-4.13-3c-1.92,0-3.29.77-3.29,2.56,0,4,11.9,3.13,11.9,10.62,0,4.74-3,7.1-8.09,7.1a9.16,9.16,0,0,1-8.64-5.47l3.64-1.6c1.06,2.18,2.44,3.62,5,3.62,2.21,0,3.9-.83,3.9-3.07,0-4.55-11.9-3.65-11.9-10.76,0-4.12,3.45-6.46,7.45-6.46a8.4,8.4,0,0,1,8.16,5.22Z"/></svg>